<?xml version="1.0" standalone="no"?>
<!DOCTYPE svg PUBLIC "-//W3C//DTD SVG 20010904//EN"
 "http://www.w3.org/TR/2001/REC-SVG-20010904/DTD/svg10.dtd">
<svg version="1.0" xmlns="http://www.w3.org/2000/svg"
 width="200.000000pt" height="200.000000pt" viewBox="0 0 200.000000 200.000000"
 preserveAspectRatio="xMidYMid meet">
<metadata>
Created by potrace 1.15, written by Peter Selinger 2001-2017
</metadata>
<g transform="translate(0.000000,200.000000) scale(0.100000,-0.100000)"
fill="#000000" stroke="none">
<path d="M865 1885 c-169 -32 -350 -107 -400 -167 -33 -39 -51 -105 -75 -268
-43 -305 -54 -696 -20 -765 10 -20 54 -56 126 -104 l112 -74 -109 -188 c-60
-104 -112 -195 -115 -204 -5 -13 6 -15 70 -15 l77 0 20 35 21 35 428 0 428 0
21 -35 20 -35 77 0 c62 0 75 3 71 14 -3 8 -55 100 -115 204 l-110 189 112 74
c72 48 116 85 126 104 25 50 20 465 -8 675 -27 198 -53 313 -79 349 -24 32
-109 84 -183 112 -174 66 -357 89 -495 64z m-145 -510 l0 -185 -138 0 -138 0
12 117 c7 64 18 148 24 185 l12 68 114 0 114 0 0 -185z m798 123 c6 -35 16
-108 22 -163 6 -55 12 -110 14 -122 3 -23 3 -23 -135 -23 l-139 0 0 185 0 185
114 0 114 0 10 -62z m-203 -1131 c14 -24 25 -47 25 -50 0 -4 -153 -7 -340 -7
-187 0 -340 3 -340 7 0 3 11 26 25 50 l26 43 289 0 289 0 26 -43z"/>
</g>
</svg>
